<?xml version="1.0" encoding="UTF-8" standalone="no"?>
<!-- Created with Inkscape (http://www.inkscape.org/) -->

<svg
   xmlns:dc="http://purl.org/dc/elements/1.1/"
   xmlns:cc="http://creativecommons.org/ns#"
   xmlns:rdf="http://www.w3.org/1999/02/22-rdf-syntax-ns#"
   xmlns:svg="http://www.w3.org/2000/svg"
   xmlns="http://www.w3.org/2000/svg"
   xmlns:sodipodi="http://sodipodi.sourceforge.net/DTD/sodipodi-0.dtd"
   xmlns:inkscape="http://www.inkscape.org/namespaces/inkscape"
   width="376.0773mm"
   height="256.77634mm"
   viewBox="0 0 376.0773 256.77633"
   version="1.1"
   id="svg8"
   sodipodi:docname="logo.svg"
   inkscape:version="0.92.5 (2060ec1f9f, 2020-04-08)">
  <defs
     id="defs2" />
  <sodipodi:namedview
     id="base"
     pagecolor="#ffffff"
     bordercolor="#666666"
     borderopacity="1.0"
     inkscape:pageopacity="0"
     inkscape:pageshadow="2"
     inkscape:zoom="0.56064691"
     inkscape:cx="412.01942"
     inkscape:cy="485.24491"
     inkscape:document-units="mm"
     inkscape:current-layer="layer1"
     showgrid="false"
     fit-margin-top="0"
     fit-margin-left="0"
     fit-margin-right="0"
     fit-margin-bottom="0"
     inkscape:window-width="1920"
     inkscape:window-height="1013"
     inkscape:window-x="0"
     inkscape:window-y="0"
     inkscape:window-maximized="1"
     inkscape:pagecheckerboard="false" />
  <metadata
     id="metadata5">
    <rdf:RDF>
      <cc:Work
         rdf:about="">
        <dc:format>image/svg+xml</dc:format>
        <dc:type
           rdf:resource="http://purl.org/dc/dcmitype/StillImage" />
        <dc:title />
      </cc:Work>
    </rdf:RDF>
  </metadata>
  <g
     inkscape:label="Camada 1"
     inkscape:groupmode="layer"
     id="layer1"
     transform="translate(-10.593586,-88.503078)">
    <path
       style="fill:#ffffff;fill-opacity:0;stroke:#ffffff;stroke-width:5.82299995;stroke-linecap:butt;stroke-linejoin:miter;stroke-miterlimit:4;stroke-dasharray:none;stroke-opacity:1"
       d="m 128.4899,91.415945 c -0.26441,-0.0024 -0.53064,-0.0016 -0.79789,0.0021 -15.91921,0.522838 -26.983,15.956685 -33.483219,35.296555 -4.28662,12.86796 -7.86523,27.15155 -11.36107,41.60108 L 65.604849,133.31985 c -6.17324,-12.68708 -14.94328,-8.25945 -14.94328,-8.25945 -7.09322,3.54141 -6.59504,10.31222 -1.53272,20.30781 8.01244,17.23808 17.588,33.08694 26.99215,49.08796 l -12.94288,51.85523 -6.92671,25.99531 c -5.38065,14.39777 -17.00198,9.16587 -22.99032,-7.56801 -5.70232,-11.05078 -20.77244,-5.91281 -19.70474,6.44819 0.86304,12.12838 17.42584,31.95882 33.60518,31.0782 18.06584,-0.69511 25.56451,-9.75395 31.22807,-23.828 6.724002,-19.62471 10.045442,-38.18042 14.335042,-56.90402 7.540669,13.40636 14.538559,21.85001 21.287069,28.01379 l -16.518886,35.93269 c -2.955674,8.69592 9.848646,14.60249 14.560346,6.1309 l 15.77372,-32.63315 c 14.5229,7.51416 29.32686,8.84509 44.57144,0.48214 l 27.35749,77.00253 c 1.81875,4.71642 4.54404,6.04394 7.66363,5.89628 h 65.22339 c 4.03312,0.0577 10.00464,-0.2812 10.55855,-7.32255 l -0.2558,-80.55012 c 0.11123,-6.7961 3.81053,-12.38076 6.45025,-15.92254 22.98154,-29.758 38.85644,-39.81192 51.27077,-40.26989 10.36312,-0.11013 25.53401,5.62397 24.05642,27.70321 -1.85378,20.33799 -11.86813,27.82164 -24.54736,26.56634 -9.07386,-1.27601 -18.60409,-5.12071 -28.40704,-15.89412 -7.50731,-8.79 -20.81387,0.0774 -15.02905,10.28878 11.18198,16.96994 29.61296,24.15752 44.4903,24.5153 15.66071,-0.22484 29.87714,-7.09226 37.97599,-25.16126 10.79748,-25.53698 2.41654,-57.13569 -25.75761,-64.88286 -25.89229,-6.50291 -46.91497,7.97933 -66.09622,30.39763 -15.93186,-30.19291 -45.67886,-39.15512 -70.82203,-25.79946 -20.35834,11.14073 -20.51915,34.55583 -36.18798,47.25706 l -19.34972,-51.15295 c -4.39069,-9.94208 -12.5927,-6.47832 -16.09308,0.76636 l -23.3996,50.06155 c -8.10994,-9.32146 -15.74757,-21.35706 -23.218739,-34.35139 6.675689,-28.26425 13.501499,-58.6606 19.085659,-71.4251 6.84644,-16.63565 16.77198,-22.00801 20.5915,0 1.98727,11.76276 23.08317,12.33584 21.02869,-4.91598 C 156.16126,103.62342 145.14763,91.566264 128.4899,91.415945 Z M 240.05933,199.39024 c 14.38272,0.0813 29.08958,10.62255 33.89042,27.36267 -15.29223,30.27176 -42.36027,30.85816 -55.34236,16.41347 -8.11663,-10.36098 -9.27489,-24.17151 0.58756,-34.68161 5.88547,-6.30987 13.33055,-9.13714 20.86438,-9.09453 z m -87.83186,6.42441 14.57017,37.992 c -10.35513,5.96538 -21.86643,5.72437 -31.72985,-0.03 z m 42.93381,34.48937 c 10.5374,29.39199 45.33585,42.65593 69.4459,23.07042 l 0.0599,62.01534 -51.20719,-0.0455 -27.13014,-75.73284 c 3.14576,-3.05202 6.31063,-6.0992 8.8315,-9.30744 z"
       id="path93"
       inkscape:connector-curvature="0"
       inkscape:export-filename="/var/www/html/yapeansa/img/logo3.png"
       inkscape:export-xdpi="96"
       inkscape:export-ydpi="96" />
  </g>
</svg>
